<svg width="15" height="20" viewBox="0 0 15 20" fill="none" xmlns="http://www.w3.org/2000/svg">
<path d="M1.47972 0C0.663788 0 0 0.670874 0 1.49544V17.9616C0 18.7862 0.663751 19.4571 1.47972 19.4571H12.5518C13.3677 19.4571 14.0315 18.7862 14.0315 17.9616V5.52493C14.0315 5.42817 13.9946 5.33518 13.9283 5.26544L9.03646 0.114676C8.96686 0.0414073 8.87079 0 8.77036 0H1.47972ZM1.47972 0.748315H8.12352V5.61259C8.12352 5.81924 8.28886 5.98674 8.49276 5.98674H13.293V17.9616C13.293 18.3736 12.9606 18.7088 12.5518 18.7088H1.47972C1.07099 18.7088 0.738469 18.3736 0.738469 17.9616V1.49544C0.738469 1.0835 1.07099 0.748315 1.47972 0.748315ZM8.86199 1.01025L12.8777 5.23843H8.86199V1.01025ZM6.86566 5.58408C6.77412 5.58294 6.67159 5.5947 6.55693 5.62379C6.26764 5.69706 5.8022 5.98337 5.93507 7.07737C5.99384 7.56072 6.16848 8.17655 6.42736 8.83943C6.28819 9.28127 6.13322 9.74332 5.98078 10.1976C5.83718 10.6255 5.68869 11.0678 5.55646 11.4849C5.45044 11.8194 5.35319 12.1358 5.26143 12.4348C5.13279 12.8539 5.01621 13.2336 4.90179 13.5774C2.92753 14.7134 2.1389 15.6972 2.09059 16.3024C2.07094 16.5483 2.16577 16.762 2.35077 16.8886C2.44355 16.9521 2.57668 17.0058 2.76168 17.0058C2.94765 17.0058 3.18601 16.9515 3.48835 16.7983C4.55401 16.2584 5.05706 15.3656 5.50585 14.0934C5.88492 13.8832 6.31458 13.6634 6.80121 13.4358C7.56865 13.077 8.22228 12.8553 8.77139 12.7251C9.40641 13.4009 10.078 13.8445 10.7082 13.8445C11.3938 13.8445 11.8774 13.6149 12.0349 13.2147C12.151 12.9196 12.0623 12.5916 11.7976 12.3371C11.4216 11.9758 10.7527 11.7905 9.91535 11.8148C9.63734 11.8229 9.34338 11.8548 9.03632 11.9094C8.34047 11.063 7.66484 9.88783 7.21087 8.80595C7.67605 7.28476 7.84597 6.29075 7.4219 5.8239C7.31589 5.70724 7.14031 5.58755 6.86566 5.58408ZM6.86018 6.33166C6.87262 6.33177 6.87911 6.33251 6.87937 6.33166C6.8926 6.34811 7.02737 6.54771 6.78488 7.57741C6.72979 7.36529 6.69003 7.16637 6.66813 6.98593C6.6136 6.53667 6.69193 6.36098 6.73603 6.34977C6.79877 6.33392 6.8388 6.33166 6.86018 6.33166ZM6.87424 9.8562C7.25594 10.6398 7.72617 11.4281 8.2386 12.0948C7.68233 12.2523 7.09527 12.4741 6.49182 12.7564C6.26385 12.863 6.04601 12.9689 5.83832 13.0738C5.88032 12.9382 5.92299 12.7992 5.96672 12.6571C6.05778 12.3602 6.15425 12.046 6.25963 11.7139C6.39006 11.3029 6.53745 10.8635 6.67999 10.4386C6.74723 10.2383 6.81206 10.0443 6.87424 9.8562ZM9.97271 12.5622C10.6356 12.5513 10.9971 12.7014 11.1085 12.7578C11.2659 12.8374 11.3261 12.9144 11.3421 12.946C11.3026 12.9897 11.1309 13.0961 10.7083 13.0961C10.3942 13.0961 10.0379 12.9019 9.67005 12.5775C9.77719 12.5686 9.87801 12.5638 9.97271 12.5622ZM4.44913 14.7363C4.13621 15.3791 3.7573 15.8254 3.15809 16.129C3.02639 16.1958 2.92892 16.2281 2.86123 16.2436C2.97444 15.9918 3.38853 15.4515 4.44913 14.7363Z" fill="black"/>
</svg>
